<?xml version="1.0" encoding="UTF-8" standalone="no"?>
<svg
   xmlns:dc="http://purl.org/dc/elements/1.1/"
   xmlns:cc="http://creativecommons.org/ns#"
   xmlns:rdf="http://www.w3.org/1999/02/22-rdf-syntax-ns#"
   xmlns:svg="http://www.w3.org/2000/svg"
   xmlns="http://www.w3.org/2000/svg"
   xmlns:sodipodi="http://sodipodi.sourceforge.net/DTD/sodipodi-0.dtd"
   xmlns:inkscape="http://www.inkscape.org/namespaces/inkscape"
   width="5120px"
   height="5120px"
   viewBox="0 0 5120 5120"
   version="1.1"
   id="svg25"
   sodipodi:docname="DiagnoSysLOGO_EXCLUSION.svg"
   inkscape:version="0.92.3 (2405546, 2018-03-11)">
  <metadata
     id="metadata29">
    <rdf:RDF>
      <cc:Work
         rdf:about="">
        <dc:format>image/svg+xml</dc:format>
        <dc:type
           rdf:resource="http://purl.org/dc/dcmitype/StillImage" />
        <dc:title>DiagnoSysLOGO</dc:title>
      </cc:Work>
    </rdf:RDF>
  </metadata>
  <sodipodi:namedview
     pagecolor="#ffffff"
     bordercolor="#666666"
     borderopacity="1"
     objecttolerance="10"
     gridtolerance="10"
     guidetolerance="10"
     inkscape:pageopacity="0"
     inkscape:pageshadow="2"
     inkscape:window-width="3200"
     inkscape:window-height="1671"
     id="namedview27"
     showgrid="false"
     inkscape:zoom="0.184375"
     inkscape:cx="1069.4904"
     inkscape:cy="2543.6217"
     inkscape:window-x="0"
     inkscape:window-y="55"
     inkscape:window-maximized="1"
     inkscape:current-layer="svg25" />
  <!-- Generator: Sketch 51.1 (57501) - http://www.bohemiancoding.com/sketch -->
  <title
     id="title2">DiagnoSysLOGO</title>
  <desc
     id="desc4">Created with Sketch.</desc>
  <defs
     id="defs6" />
  <path
     style="fill:#1ba0c1;fill-rule:nonzero;stroke:none;stroke-width:1"
     d="M 1702.418,51.654297 C 1658.3107,51.865154 1613.7656,56.625 1569,66 c -230,47 -413,207 -499,434 -26,69 -28,86 -28,220 -1,150 1,160 58,291 6,14 -5,17 -76,22 -108,9 -185,30 -281,77 -192,96 -328,251 -398,454 -94,270 -29,576 165,786 20,22 36,43 36,47 0,4 -21,21 -48,38 -65,41 -210,187 -261,263 -63,94 -118,215 -148,327 -23,88 -26,118 -26,255 0,135 3,168 26,255 31,118 106,274 175,365 111,146 272,271 436,336 l 81,33 8,48 c 34,199 81,316 175,435 179,225 477,337 757,283 276,-53 492,-230 594,-487 59,-147 56,-45 56,-2063 V 625 l -23,-80 C 2306,400 2222,274 2113,193 1985.9062,98.828125 1846.5018,50.965496 1702.418,51.654297 Z m 1828.1328,1.164062 C 3422.5625,52.671875 3313.625,93.5 3230,182 c -62,65 -97,131 -114,213 -13,60 -14,61 -197,246 l -183,185 v 1720 c 0,1486 2,1722 15,1740 7,12 118,99 245,194 177,133 231,179 236,199 23,115 58,183 129,250 112,106 255,143 400,105 121,-31 224,-117 278,-232 30,-63 32,-74 32,-177 0,-103 -2,-114 -32,-177 -44,-93 -109,-160 -200,-205 -98,-48 -204,-57 -311,-24 -120,36 -235,145 -272,256 -7,20 -15,35 -19,33 -4,-2 -91,-66 -194,-143 l -187,-139 v -748 -748 h 202 202 l 246,245 246,245 h 227 226 l 12,42 c 72,269 367,400 611,271 253,-133 304,-469 101,-672 -171,-170 -439,-168 -602,4 -52,55 -92,124 -110,193 l -12,42 h -202 -201 l -246,-245 -246,-245 h -227 -227 l 2,-182 3,-183 166,-3 165,-2 240,-240 239,-240 h 146 147 l 12,48 c 28,114 119,219 237,275 63,30 76,32 174,32 101,0 108,-1 181,-38 218,-107 302,-354 194,-572 -140,-283 -533,-314 -721,-57 -19,26 -44,80 -57,119 l -23,73 h -169 -170 l -240,240 -241,240 H 2999 2856 V 1497 875 l 133,-133 134,-134 26,54 c 37,74 81,125 150,169 85,55 153,72 260,66 76,-4 99,-10 162,-41 181,-90 273,-296 220,-492 C 3887.875,167.125 3710.5312,53.0625 3530.5508,52.818359 Z M 1703.1055,171.0293 C 1933.7683,171.69936 2153.1406,327.78906 2232,570 c 15,48 18,105 22,438 2,210 1,382 -2,382 -3,0 -31,-18 -62,-40 -47,-33 -99,-55 -179,-75 -5,-2 -18,-25 -27,-52 -38,-107 -155,-193 -265,-193 -57,0 -73,14 -73,63 0,33 21,49 81,58 214,34 205,334 -10,363 -55,7 -71,21 -71,60 0,43 16,56 70,56 109,0 219,-74 261,-175 14,-35 29,-55 39,-55 32,0 119,52 155,92 21,22 47,61 59,87 21,45 21,56 24,699 2,358 0,652 -3,652 -3,0 -22,-16 -42,-36 -89,-89 -231,-153 -351,-157 -68,-2 -92,13 -92,57 0,39 17,49 102,62 49,8 108,26 144,44 120,59 213,183 234,315 13,78 13,1039 0,1128 -47,327 -309,567 -634,582 -50,2 -100,2 -111,-1 -11,-2 -45,-9 -75,-15 -170,-33 -361,-183 -445,-349 -190,-376 15,-836 425,-949 108,-30 114,-29 134,24 39,100 143,179 255,192 41,5 52,2 70,-16 11,-11 21,-30 21,-41 0,-28 -35,-60 -65,-60 -34,0 -94,-26 -123,-53 -37,-34 -55,-77 -55,-132 0,-80 40,-138 115,-170 21,-8 51,-15 67,-15 20,0 35,-8 45,-22 22,-31 20,-54 -5,-79 -18,-18 -29,-21 -72,-15 -111,13 -219,97 -252,195 l -15,47 -78,13 c -141,24 -289,94 -391,186 -47,43 -69,42 -163,-7 -121,-64 -212,-199 -227,-338 -10,-95 -43,-123 -99,-84 -17,12 -22,25 -22,58 0,191 123,386 297,472 43,22 79,40 81,40 1,1 -15,35 -37,75 -38,71 -57,123 -81,217 -6,23 -16,42 -23,42 -7,0 -46,-16 -87,-36 -201,-96 -370,-278 -453,-485 -49,-122 -61,-192 -61,-344 1,-163 20,-249 84,-383 48,-100 83,-153 156,-231 127,-138 302,-235 497,-276 90,-20 127,-19 127,0 0,30 49,112 86,145 74,65 191,97 239,66 51,-33 21,-106 -45,-106 -42,-1 -106,-36 -136,-75 -39,-51 -45,-134 -15,-193 26,-51 81,-89 141,-98 53,-8 80,-28 80,-61 0,-30 -33,-63 -63,-63 -42,0 -130,31 -175,62 -47,32 -87,86 -107,145 l -13,37 -87,13 c -48,7 -131,28 -186,46 l -99,34 -57,-58 c -70,-69 -115,-142 -151,-241 -24,-67 -27,-86 -27,-218 0,-132 3,-151 27,-218 39,-108 84,-178 170,-263 138,-139 294,-196 506,-187 103,5 116,4 133,-13 27,-27 24,-45 -21,-114 -59,-90 -82,-164 -88,-274 -8,-173 36,-289 158,-412 77,-78 122,-107 219,-140 55.4688,-19.14062 112.1194,-28.13334 168.1055,-27.9707 z m 1826.5898,1.16797 C 3641.2,171.91813 3751.8359,234.4375 3808,348 c 33,66 33,198 0,259 -57,109 -143,165 -262,170 -47,2 -89,-2 -111,-10 -61,-23 -108,-57 -144,-104 -99,-130 -82,-302 43,-415 57.0391,-51.29688 126.5342,-75.6296 195.6953,-75.80273 z M 1708.5195,420.70898 c -9.4114,0.0319 -21.4883,0.88477 -37.5195,2.29102 -141,11 -251,119 -271,265 -5,43 -3,53 15,71 26,26 63,27 83,4 8,-10 18,-35 21,-55 14,-91 89,-168 164,-168 23,0 42,-8 58,-25 29,-28 31,-42 9,-74 -10.7812,-15.09375 -17.429,-20.37244 -41.4805,-20.29102 z m -631.1191,972.34962 c -14.4687,-0.1475 -31.4316,1.5664 -51.4004,4.9414 -171,31 -301,150 -345,317 -21,80 -19,121 5,145 25,25 54,26 78,2 11,-11 21,-41 25,-72 18,-148 130,-258 281,-276 45,-5 61,-12 73,-31 13,-19 14,-29 5,-49 -12.9375,-28.0312 -33.624,-40.5645 -70.5996,-40.9414 z m 3298.4043,0.7559 c 49.8737,-0.2496 101.8203,9.5293 142.1953,29.1855 60,30 115,84 144,146 26,53 30,167 8,233 -25,75 -111,160 -184,182 -66,20 -151,19 -208,-1 -61,-21 -145,-102 -173,-165 -65,-150 0,-320 153,-400 31.4062,-15.9375 73.7985,-23.9654 117.8047,-24.1855 z m 254.707,1461.3906 c 45.2641,0.2097 90.3321,9.7168 128.4883,28.7949 135,65 204,218 163,359 -44,151 -201,247 -355,216 -93,-18 -195,-107 -225,-196 -20,-60 -20,-147 0,-207 22,-64 100,-147 166,-177 37.2969,-15.9844 79.9909,-23.9919 122.5117,-23.7949 z M 1948,4200 c -38,0 -62,27 -62,71 0,54 -34,139 -75,187 -45,52 -143,102 -200,102 -72,0 -113,59 -74,106 21,25 139,14 214,-20 117,-53 198,-145 235,-265 35,-113 21,-181 -38,-181 z m 1708.6875,119.8164 c 70.2801,0.082 140.8906,24.5039 198.3125,76.1836 66,60 95,121 99,216 4,66 0,85 -21,131 -31,67 -94,132 -155,159 -57,26 -154,32 -207,15 -93,-31 -159,-89 -198,-176 -31,-66 -29,-178 3,-244 54.9297,-114.1797 167.3788,-177.3157 280.6875,-177.1836 z"
     id="Shape"
     inkscape:connector-curvature="0" />
</svg>
