<?xml version="1.0" encoding="UTF-8"?>
<svg width="13131px" height="4096px" viewBox="0 0 13131 4096" version="1.1" xmlns="http://www.w3.org/2000/svg" xmlns:xlink="http://www.w3.org/1999/xlink">
    <!-- Generator: Sketch 51.1 (57501) - http://www.bohemiancoding.com/sketch -->
    <title>DiagnoSysLOGO</title>
    <desc>Created with Sketch.</desc>
    <defs></defs>
    <g id="Page-1" stroke="none" stroke-width="1" fill="none" fill-rule="evenodd">
        <g id="cyberbrain-line-icon-artificial-vector-18037027" transform="translate(366.000000, 512.000000)" fill-rule="nonzero">
            <g id="layer101" fill="#1BA0C1">
                <polygon id="Shape" points="0 1536 0 0 1536 0 3072 0 3072 1536 3072 3072 1536 3072 0 3072"></polygon>
            </g>
            <g id="layer102" fill="#FFFFFF">
                <path d="M0,1536 L0,0 L1536,0 L3072,0 L3072,1536 L3072,3072 L1536,3072 L0,3072 L0,1536 Z M1017,3003 C1182.6,2971.2 1312.2,2865 1373.4,2710.8 C1408.8,2622.6 1407,2683.8 1407,1473 L1407,357 L1393.2,309 C1368,222 1317.6,146.4 1252.2,97.8 C1152.6,24 1040.4,-2.4 925.8,21.6 C787.8,49.8 678,145.8 626.4,282 C610.8,323.4 609.6,333.6 609.6,414 C609,504 610.2,510 644.4,588.6 C648,597 641.4,598.8 598.8,601.8 C534,607.2 487.8,619.8 430.2,648 C315,705.6 233.4,798.6 191.4,920.4 C135,1082.4 174,1266 290.4,1392 C302.4,1405.2 312,1417.8 312,1420.2 C312,1422.6 299.4,1432.8 283.2,1443 C244.2,1467.6 157.2,1555.2 126.6,1600.8 C88.8,1657.2 55.8,1729.8 37.8,1797 C24,1849.8 22.2,1867.8 22.2,1950 C22.2,2031 24,2050.8 37.8,2103 C56.4,2173.8 101.4,2267.4 142.8,2322 C209.4,2409.6 306,2484.6 404.4,2523.6 L453,2543.4 L457.8,2572.2 C478.2,2691.6 506.4,2761.8 562.8,2833.2 C670.2,2968.2 849,3035.4 1017,3003 Z M2241,3002.4 C2313.6,2983.8 2375.4,2932.2 2407.8,2863.2 C2425.8,2825.4 2427,2818.8 2427,2757 C2427,2695.2 2425.8,2688.6 2407.8,2650.8 C2381.4,2595 2342.4,2554.8 2287.8,2527.8 C2229,2499 2165.4,2493.6 2101.2,2513.4 C2029.2,2535 1960.2,2600.4 1938,2667 C1933.8,2679 1929,2688 1926.6,2686.8 C1924.2,2685.6 1872,2647.2 1810.2,2601 L1698,2517.6 L1698,2068.8 L1698,1620 L1819.2,1620 L1940.4,1620 L2088,1767 L2235.6,1914 L2371.8,1914 L2507.4,1914 L2514.6,1939.2 C2557.8,2100.6 2734.8,2179.2 2881.2,2101.8 C3033,2022 3063.6,1820.4 2941.8,1698.6 C2839.2,1596.6 2678.4,1597.8 2580.6,1701 C2549.4,1734 2525.4,1775.4 2514.6,1816.8 L2507.4,1842 L2386.2,1842 L2265.6,1842 L2118,1695 L1970.4,1548 L1834.2,1548 L1698,1548 L1699.2,1438.8 L1701,1329 L1800.6,1327.2 L1899.6,1326 L2043.6,1182 L2187,1038 L2274.6,1038 L2362.8,1038 L2370,1066.8 C2386.8,1135.2 2441.4,1198.2 2512.2,1231.8 C2550,1249.8 2557.8,1251 2616.6,1251 C2677.2,1251 2681.4,1250.4 2725.2,1228.2 C2856,1164 2906.4,1015.8 2841.6,885 C2757.6,715.2 2521.8,696.6 2409,850.8 C2397.6,866.4 2382.6,898.8 2374.8,922.2 L2361,966 L2259.6,966 L2157.6,966 L2013.6,1110 L1869,1254 L1783.8,1254 L1698,1254 L1698,880.2 L1698,507 L1777.8,427.2 L1858.2,346.8 L1873.8,379.2 C1896,423.6 1922.4,454.2 1963.8,480.6 C2014.8,513.6 2055.6,523.8 2119.8,520.2 C2165.4,517.8 2179.2,514.2 2217,495.6 C2325.6,441.6 2380.8,318 2349,200.4 C2298,11.4 2056.2,-50.4 1922.4,91.2 C1885.2,130.2 1864.2,169.8 1854,219 C1846.2,255 1845.6,255.6 1735.8,366.6 L1626,477.6 L1626,1509.6 C1626,2401.2 1627.2,2542.8 1635,2553.6 C1639.2,2560.8 1705.8,2613 1782,2670 C1888.2,2749.8 1920.6,2777.4 1923.6,2789.4 C1937.4,2858.4 1958.4,2899.2 2001,2939.4 C2068.2,3003 2154,3025.2 2241,3002.4 Z" id="Shape"></path>
                <path d="M885,2936.4 C878.4,2935.2 858,2931 840,2927.4 C738,2907.6 623.4,2817.6 573,2718 C459,2492.4 582,2216.4 828,2148.6 C892.8,2130.6 896.4,2131.2 908.4,2163 C931.8,2223 994.2,2270.4 1061.4,2278.2 C1086,2281.2 1092.6,2279.4 1103.4,2268.6 C1110,2262 1116,2250.6 1116,2244 C1116,2227.2 1095,2208 1077,2208 C1056.6,2208 1020.6,2192.4 1003.2,2176.2 C981,2155.8 970.2,2130 970.2,2097 C970.2,2049 994.2,2014.2 1039.2,1995 C1051.8,1990.2 1069.8,1986 1079.4,1986 C1091.4,1986 1100.4,1981.2 1106.4,1972.8 C1119.6,1954.2 1118.4,1940.4 1103.4,1925.4 C1092.6,1914.6 1086,1912.8 1060.2,1916.4 C993.6,1924.2 928.8,1974.6 909,2033.4 L900,2061.6 L853.2,2069.4 C768.6,2083.8 679.8,2125.8 618.6,2181 C590.4,2206.8 577.2,2206.2 520.8,2176.8 C448.2,2138.4 393.6,2057.4 384.6,1974 C378.6,1917 358.8,1900.2 325.2,1923.6 C315,1930.8 312,1938.6 312,1958.4 C312,2073 385.8,2190 490.2,2241.6 C516,2254.8 537.6,2265.6 538.8,2265.6 C539.4,2266.2 529.8,2286.6 516.6,2310.6 C493.8,2353.2 482.4,2384.4 468,2440.8 C464.4,2454.6 458.4,2466 454.2,2466 C450,2466 426.6,2456.4 402,2444.4 C281.4,2386.8 180,2277.6 130.2,2153.4 C100.8,2080.2 93.6,2038.2 93.6,1947 C94.2,1849.2 105.6,1797.6 144,1717.2 C172.8,1657.2 193.8,1625.4 237.6,1578.6 C313.8,1495.8 418.8,1437.6 535.8,1413 C589.8,1401 612,1401.6 612,1413 C612,1431 641.4,1480.2 663.6,1500 C708,1539 778.2,1558.2 807,1539.6 C837.6,1519.8 819.6,1476 780,1476 C754.8,1475.4 716.4,1454.4 698.4,1431 C675,1400.4 671.4,1350.6 689.4,1315.2 C705,1284.6 738,1261.8 774,1256.4 C805.8,1251.6 822,1239.6 822,1219.8 C822,1201.8 802.2,1182 784.2,1182 C759,1182 706.2,1200.6 679.2,1219.2 C651,1238.4 627,1270.8 615,1306.2 L607.2,1328.4 L555,1336.2 C526.2,1340.4 476.4,1353 443.4,1363.8 L384,1384.2 L349.8,1349.4 C307.8,1308 280.8,1264.2 259.2,1204.8 C244.8,1164.6 243,1153.2 243,1074 C243,994.8 244.8,983.4 259.2,943.2 C282.6,878.4 309.6,836.4 361.2,785.4 C444,702 537.6,667.8 664.8,673.2 C726.6,676.2 734.4,675.6 744.6,665.4 C760.8,649.2 759,638.4 732,597 C696.6,543 682.8,498.6 679.2,432.6 C674.4,328.8 700.8,259.2 774,185.4 C820.2,138.6 847.2,121.2 905.4,101.4 C1075.8,42.6 1264.8,143.4 1323.6,324 C1332.6,352.8 1334.4,387 1336.8,586.8 C1338,712.8 1337.4,816 1335.6,816 C1333.8,816 1317,805.2 1298.4,792 C1270.2,772.2 1239,759 1191,747 C1188,745.8 1180.2,732 1174.8,715.8 C1152,651.6 1081.8,600 1015.8,600 C981.6,600 972,608.4 972,637.8 C972,657.6 984.6,667.2 1020.6,672.6 C1149,693 1143.6,873 1014.6,890.4 C981.6,894.6 972,903 972,926.4 C972,952.2 981.6,960 1014,960 C1079.4,960 1145.4,915.6 1170.6,855 C1179,834 1188,822 1194,822 C1213.2,822 1265.4,853.2 1287,877.2 C1299.6,890.4 1315.2,913.8 1322.4,929.4 C1335,956.4 1335,963 1336.8,1348.8 C1338,1563.6 1336.8,1740 1335,1740 C1333.2,1740 1321.8,1730.4 1309.8,1718.4 C1256.4,1665 1171.2,1626.6 1099.2,1624.2 C1058.4,1623 1044,1632 1044,1658.4 C1044,1681.8 1054.2,1687.8 1105.2,1695.6 C1134.6,1700.4 1170,1711.2 1191.6,1722 C1263.6,1757.4 1319.4,1831.8 1332,1911 C1339.8,1957.8 1339.8,2534.4 1332,2587.8 C1303.8,2784 1146.6,2928 951.6,2937 C921.6,2938.2 891.6,2938.2 885,2936.4 Z M1035,2769.6 C1105.2,2737.8 1153.8,2682.6 1176,2610.6 C1197,2542.8 1188.6,2502 1153.2,2502 C1130.4,2502 1116,2518.2 1116,2544.6 C1116,2577 1095.6,2628 1071,2656.8 C1044,2688 985.2,2718 951,2718 C907.8,2718 883.2,2753.4 906.6,2781.6 C919.2,2796.6 990,2790 1035,2769.6 Z M442.8,1099.2 C449.4,1092.6 455.4,1074.6 457.8,1056 C468.6,967.2 535.8,901.2 626.4,890.4 C653.4,887.4 663,883.2 670.2,871.8 C678,860.4 678.6,854.4 673.2,842.4 C662.4,819 642.6,813.6 600,820.8 C497.4,839.4 419.4,910.8 393,1011 C380.4,1059 381.6,1083.6 396,1098 C411,1113 428.4,1113.6 442.8,1099.2 Z M883.2,439.8 C888,433.8 894,418.8 895.8,406.8 C904.2,352.2 949.2,306 994.2,306 C1008,306 1019.4,301.2 1029,291 C1046.4,274.2 1047.6,265.8 1034.4,246.6 C1025.4,234 1021.2,232.8 987,235.8 C902.4,242.4 836.4,307.2 824.4,394.8 C821.4,420.6 822.6,426.6 833.4,437.4 C849,453 871.2,453.6 883.2,439.8 Z" id="Shape"></path>
                <path d="M2127,2932.2 C2071.2,2913.6 2031.6,2878.8 2008.2,2826.6 C1989.6,2787 1990.8,2719.8 2010,2680.2 C2063.4,2569.2 2207.4,2538.6 2297.4,2619.6 C2337,2655.6 2354.4,2692.2 2356.8,2749.2 C2359.2,2788.8 2356.8,2800.2 2344.2,2827.8 C2325.6,2868 2287.8,2907 2251.2,2923.2 C2217,2938.8 2158.8,2942.4 2127,2932.2 Z" id="Shape"></path>
                <path d="M2724.6,2057.4 C2668.8,2046.6 2607.6,1993.2 2589.6,1939.8 C2577.6,1903.8 2577.6,1851.6 2589.6,1815.6 C2602.8,1777.2 2649.6,1727.4 2689.2,1709.4 C2735.4,1689.6 2795.4,1690.2 2839.8,1712.4 C2920.8,1751.4 2962.2,1843.2 2937.6,1927.8 C2911.2,2018.4 2817,2076 2724.6,2057.4 Z" id="Shape"></path>
                <path d="M2551.2,1171.8 C2514.6,1159.2 2464.2,1110.6 2447.4,1072.8 C2408.4,982.8 2447.4,880.8 2539.2,832.8 C2579.4,812.4 2649.6,813.6 2695.2,835.8 C2731.2,853.8 2764.2,886.2 2781.6,923.4 C2797.2,955.2 2799.6,1023.6 2786.4,1063.2 C2771.4,1108.2 2719.8,1159.2 2676,1172.4 C2636.4,1184.4 2585.4,1183.8 2551.2,1171.8 Z" id="Shape"></path>
                <path d="M2045.4,442.2 C2008.8,428.4 1980.6,408 1959,379.8 C1899.6,301.8 1909.8,198.6 1984.8,130.8 C2074.2,50.4 2214.6,80.4 2269.2,190.8 C2289,230.4 2289,309.6 2269.2,346.2 C2235,411.6 2183.4,445.2 2112,448.2 C2083.8,449.4 2058.6,447 2045.4,442.2 Z" id="Shape"></path>
            </g>
        </g>
        <text id="DiagnoSys" font-family="MMTextBook" font-size="2048" font-weight="normal" fill="#9B9B9B">
            <tspan x="3579" y="2567">DiagnoSys</tspan>
        </text>
    </g>
</svg>