<?xml version="1.0" encoding="UTF-8"?>
<svg width="5120px" height="5120px" viewBox="0 0 5120 5120" version="1.1" xmlns="http://www.w3.org/2000/svg" xmlns:xlink="http://www.w3.org/1999/xlink">
    <!-- Generator: Sketch 51.1 (57501) - http://www.bohemiancoding.com/sketch -->
    <title>DiagnoSysLOGO</title>
    <desc>Created with Sketch.</desc>
    <defs></defs>
    <g id="Page-1" stroke="none" stroke-width="1" fill="none" fill-rule="evenodd">
        <g id="cyberbrain-line-icon-artificial-vector-18037027" fill-rule="nonzero">
            <g id="layer101" fill="#FFFFFF">
                <polygon id="Shape" points="0 2560 0 0 2560 0 5120 0 5120 2560 5120 5120 2560 5120 0 5120"></polygon>
            </g>
            <g id="layer102" fill="#1BA0C1">
                <path d="M0,2560 L0,0 L2560,0 L5120,0 L5120,2560 L5120,5120 L2560,5120 L0,5120 L0,2560 Z M1695,5005 C1971,4952 2187,4775 2289,4518 C2348,4371 2345,4473 2345,2455 L2345,595 L2322,515 C2280,370 2196,244 2087,163 C1921,40 1734,-4 1543,36 C1313,83 1130,243 1044,470 C1018,539 1016,556 1016,690 C1015,840 1017,850 1074,981 C1080,995 1069,998 998,1003 C890,1012 813,1033 717,1080 C525,1176 389,1331 319,1534 C225,1804 290,2110 484,2320 C504,2342 520,2363 520,2367 C520,2371 499,2388 472,2405 C407,2446 262,2592 211,2668 C148,2762 93,2883 63,2995 C40,3083 37,3113 37,3250 C37,3385 40,3418 63,3505 C94,3623 169,3779 238,3870 C349,4016 510,4141 674,4206 L755,4239 L763,4287 C797,4486 844,4603 938,4722 C1117,4947 1415,5059 1695,5005 Z M3735,5004 C3856,4973 3959,4887 4013,4772 C4043,4709 4045,4698 4045,4595 C4045,4492 4043,4481 4013,4418 C3969,4325 3904,4258 3813,4213 C3715,4165 3609,4156 3502,4189 C3382,4225 3267,4334 3230,4445 C3223,4465 3215,4480 3211,4478 C3207,4476 3120,4412 3017,4335 L2830,4196 L2830,3448 L2830,2700 L3032,2700 L3234,2700 L3480,2945 L3726,3190 L3953,3190 L4179,3190 L4191,3232 C4263,3501 4558,3632 4802,3503 C5055,3370 5106,3034 4903,2831 C4732,2661 4464,2663 4301,2835 C4249,2890 4209,2959 4191,3028 L4179,3070 L3977,3070 L3776,3070 L3530,2825 L3284,2580 L3057,2580 L2830,2580 L2832,2398 L2835,2215 L3001,2212 L3166,2210 L3406,1970 L3645,1730 L3791,1730 L3938,1730 L3950,1778 C3978,1892 4069,1997 4187,2053 C4250,2083 4263,2085 4361,2085 C4462,2085 4469,2084 4542,2047 C4760,1940 4844,1693 4736,1475 C4596,1192 4203,1161 4015,1418 C3996,1444 3971,1498 3958,1537 L3935,1610 L3766,1610 L3596,1610 L3356,1850 L3115,2090 L2973,2090 L2830,2090 L2830,1467 L2830,845 L2963,712 L3097,578 L3123,632 C3160,706 3204,757 3273,801 C3358,856 3426,873 3533,867 C3609,863 3632,857 3695,826 C3876,736 3968,530 3915,334 C3830,19 3427,-84 3204,152 C3142,217 3107,283 3090,365 C3077,425 3076,426 2893,611 L2710,796 L2710,2516 C2710,4002 2712,4238 2725,4256 C2732,4268 2843,4355 2970,4450 C3147,4583 3201,4629 3206,4649 C3229,4764 3264,4832 3335,4899 C3447,5005 3590,5042 3735,5004 Z" id="Shape"></path>
                <path d="M1475,4894 C1464,4892 1430,4885 1400,4879 C1230,4846 1039,4696 955,4530 C765,4154 970,3694 1380,3581 C1488,3551 1494,3552 1514,3605 C1553,3705 1657,3784 1769,3797 C1810,3802 1821,3799 1839,3781 C1850,3770 1860,3751 1860,3740 C1860,3712 1825,3680 1795,3680 C1761,3680 1701,3654 1672,3627 C1635,3593 1617,3550 1617,3495 C1617,3415 1657,3357 1732,3325 C1753,3317 1783,3310 1799,3310 C1819,3310 1834,3302 1844,3288 C1866,3257 1864,3234 1839,3209 C1821,3191 1810,3188 1767,3194 C1656,3207 1548,3291 1515,3389 L1500,3436 L1422,3449 C1281,3473 1133,3543 1031,3635 C984,3678 962,3677 868,3628 C747,3564 656,3429 641,3290 C631,3195 598,3167 542,3206 C525,3218 520,3231 520,3264 C520,3455 643,3650 817,3736 C860,3758 896,3776 898,3776 C899,3777 883,3811 861,3851 C823,3922 804,3974 780,4068 C774,4091 764,4110 757,4110 C750,4110 711,4094 670,4074 C469,3978 300,3796 217,3589 C168,3467 156,3397 156,3245 C157,3082 176,2996 240,2862 C288,2762 323,2709 396,2631 C523,2493 698,2396 893,2355 C983,2335 1020,2336 1020,2355 C1020,2385 1069,2467 1106,2500 C1180,2565 1297,2597 1345,2566 C1396,2533 1366,2460 1300,2460 C1258,2459 1194,2424 1164,2385 C1125,2334 1119,2251 1149,2192 C1175,2141 1230,2103 1290,2094 C1343,2086 1370,2066 1370,2033 C1370,2003 1337,1970 1307,1970 C1265,1970 1177,2001 1132,2032 C1085,2064 1045,2118 1025,2177 L1012,2214 L925,2227 C877,2234 794,2255 739,2273 L640,2307 L583,2249 C513,2180 468,2107 432,2008 C408,1941 405,1922 405,1790 C405,1658 408,1639 432,1572 C471,1464 516,1394 602,1309 C740,1170 896,1113 1108,1122 C1211,1127 1224,1126 1241,1109 C1268,1082 1265,1064 1220,995 C1161,905 1138,831 1132,721 C1124,548 1168,432 1290,309 C1367,231 1412,202 1509,169 C1793,71 2108,239 2206,540 C2221,588 2224,645 2228,978 C2230,1188 2229,1360 2226,1360 C2223,1360 2195,1342 2164,1320 C2117,1287 2065,1265 1985,1245 C1980,1243 1967,1220 1958,1193 C1920,1086 1803,1000 1693,1000 C1636,1000 1620,1014 1620,1063 C1620,1096 1641,1112 1701,1121 C1915,1155 1906,1455 1691,1484 C1636,1491 1620,1505 1620,1544 C1620,1587 1636,1600 1690,1600 C1799,1600 1909,1526 1951,1425 C1965,1390 1980,1370 1990,1370 C2022,1370 2109,1422 2145,1462 C2166,1484 2192,1523 2204,1549 C2225,1594 2225,1605 2228,2248 C2230,2606 2228,2900 2225,2900 C2222,2900 2203,2884 2183,2864 C2094,2775 1952,2711 1832,2707 C1764,2705 1740,2720 1740,2764 C1740,2803 1757,2813 1842,2826 C1891,2834 1950,2852 1986,2870 C2106,2929 2199,3053 2220,3185 C2233,3263 2233,4224 2220,4313 C2173,4640 1911,4880 1586,4895 C1536,4897 1486,4897 1475,4894 Z M1725,4616 C1842,4563 1923,4471 1960,4351 C1995,4238 1981,4170 1922,4170 C1884,4170 1860,4197 1860,4241 C1860,4295 1826,4380 1785,4428 C1740,4480 1642,4530 1585,4530 C1513,4530 1472,4589 1511,4636 C1532,4661 1650,4650 1725,4616 Z M738,1832 C749,1821 759,1791 763,1760 C781,1612 893,1502 1044,1484 C1089,1479 1105,1472 1117,1453 C1130,1434 1131,1424 1122,1404 C1104,1365 1071,1356 1000,1368 C829,1399 699,1518 655,1685 C634,1765 636,1806 660,1830 C685,1855 714,1856 738,1832 Z M1472,733 C1480,723 1490,698 1493,678 C1507,587 1582,510 1657,510 C1680,510 1699,502 1715,485 C1744,457 1746,443 1724,411 C1709,390 1702,388 1645,393 C1504,404 1394,512 1374,658 C1369,701 1371,711 1389,729 C1415,755 1452,756 1472,733 Z" id="Shape"></path>
                <path d="M3545,4887 C3452,4856 3386,4798 3347,4711 C3316,4645 3318,4533 3350,4467 C3439,4282 3679,4231 3829,4366 C3895,4426 3924,4487 3928,4582 C3932,4648 3928,4667 3907,4713 C3876,4780 3813,4845 3752,4872 C3695,4898 3598,4904 3545,4887 Z" id="Shape"></path>
                <path d="M4541,3429 C4448,3411 4346,3322 4316,3233 C4296,3173 4296,3086 4316,3026 C4338,2962 4416,2879 4482,2849 C4559,2816 4659,2817 4733,2854 C4868,2919 4937,3072 4896,3213 C4852,3364 4695,3460 4541,3429 Z" id="Shape"></path>
                <path d="M4252,1953 C4191,1932 4107,1851 4079,1788 C4014,1638 4079,1468 4232,1388 C4299,1354 4416,1356 4492,1393 C4552,1423 4607,1477 4636,1539 C4662,1592 4666,1706 4644,1772 C4619,1847 4533,1932 4460,1954 C4394,1974 4309,1973 4252,1953 Z" id="Shape"></path>
                <path d="M3409,737 C3348,714 3301,680 3265,633 C3166,503 3183,331 3308,218 C3457,84 3691,134 3782,318 C3815,384 3815,516 3782,577 C3725,686 3639,742 3520,747 C3473,749 3431,745 3409,737 Z" id="Shape"></path>
            </g>
        </g>
    </g>
</svg>