<?xml version="1.0" encoding="UTF-8"?>
<svg width="19128px" height="4998px" viewBox="0 0 19128 4998" version="1.1" xmlns="http://www.w3.org/2000/svg" xmlns:xlink="http://www.w3.org/1999/xlink">
    <!-- Generator: Sketch 51.1 (57501) - http://www.bohemiancoding.com/sketch -->
    <title>Untitled</title>
    <desc>Created with Sketch.</desc>
    <defs></defs>
    <g id="Page-1" stroke="none" stroke-width="1" fill="none" fill-rule="evenodd">
        <g id="DiagnoSysLOGO_EXCLUSION" fill="#1BA0C1" fill-rule="nonzero">
            <path d="M1639.418,0.654297 C1595.3107,0.865154 1550.7656,5.625 1506,15 C1276,62 1093,222 1007,449 C981,518 979,535 979,669 C978,819 980,829 1037,960 C1043,974 1032,977 961,982 C853,991 776,1012 680,1059 C488,1155 352,1310 282,1513 C188,1783 253,2089 447,2299 C467,2321 483,2342 483,2346 C483,2350 462,2367 435,2384 C370,2425 225,2571 174,2647 C111,2741 56,2862 26,2974 C3,3062 0,3092 0,3229 C0,3364 3,3397 26,3484 C57,3602 132,3758 201,3849 C312,3995 473,4120 637,4185 L718,4218 L726,4266 C760,4465 807,4582 901,4701 C1080,4926 1378,5038 1658,4984 C1934,4931 2150,4754 2252,4497 C2311,4350 2308,4452 2308,2434 L2308,574 L2285,494 C2243,349 2159,223 2050,142 C1922.9062,47.828125 1783.5018,-0.034504 1639.418,0.654297 Z M3467.5508,1.818359 C3359.5625,1.671875 3250.625,42.5 3167,131 C3105,196 3070,262 3053,344 C3040,404 3039,405 2856,590 L2673,775 L2673,2495 C2673,3981 2675,4217 2688,4235 C2695,4247 2806,4334 2933,4429 C3110,4562 3164,4608 3169,4628 C3192,4743 3227,4811 3298,4878 C3410,4984 3553,5021 3698,4983 C3819,4952 3922,4866 3976,4751 C4006,4688 4008,4677 4008,4574 C4008,4471 4006,4460 3976,4397 C3932,4304 3867,4237 3776,4192 C3678,4144 3572,4135 3465,4168 C3345,4204 3230,4313 3193,4424 C3186,4444 3178,4459 3174,4457 C3170,4455 3083,4391 2980,4314 L2793,4175 L2793,3427 L2793,2679 L2995,2679 L3197,2679 L3443,2924 L3689,3169 L3916,3169 L4142,3169 L4154,3211 C4226,3480 4521,3611 4765,3482 C5018,3349 5069,3013 4866,2810 C4695,2640 4427,2642 4264,2814 C4212,2869 4172,2938 4154,3007 L4142,3049 L3940,3049 L3739,3049 L3493,2804 L3247,2559 L3020,2559 L2793,2559 L2795,2377 L2798,2194 L2964,2191 L3129,2189 L3369,1949 L3608,1709 L3754,1709 L3901,1709 L3913,1757 C3941,1871 4032,1976 4150,2032 C4213,2062 4226,2064 4324,2064 C4425,2064 4432,2063 4505,2026 C4723,1919 4807,1672 4699,1454 C4559,1171 4166,1140 3978,1397 C3959,1423 3934,1477 3921,1516 L3898,1589 L3729,1589 L3559,1589 L3319,1829 L3078,2069 L2936,2069 L2793,2069 L2793,1446 L2793,824 L2926,691 L3060,557 L3086,611 C3123,685 3167,736 3236,780 C3321,835 3389,852 3496,846 C3572,842 3595,836 3658,805 C3839,715 3931,509 3878,313 C3824.875,116.125 3647.5312,2.0625 3467.5508,1.818359 Z M1640.1055,120.0293 C1870.7683,120.69936 2090.1406,276.78906 2169,519 C2184,567 2187,624 2191,957 C2193,1167 2192,1339 2189,1339 C2186,1339 2158,1321 2127,1299 C2080,1266 2028,1244 1948,1224 C1943,1222 1930,1199 1921,1172 C1883,1065 1766,979 1656,979 C1599,979 1583,993 1583,1042 C1583,1075 1604,1091 1664,1100 C1878,1134 1869,1434 1654,1463 C1599,1470 1583,1484 1583,1523 C1583,1566 1599,1579 1653,1579 C1762,1579 1872,1505 1914,1404 C1928,1369 1943,1349 1953,1349 C1985,1349 2072,1401 2108,1441 C2129,1463 2155,1502 2167,1528 C2188,1573 2188,1584 2191,2227 C2193,2585 2191,2879 2188,2879 C2185,2879 2166,2863 2146,2843 C2057,2754 1915,2690 1795,2686 C1727,2684 1703,2699 1703,2743 C1703,2782 1720,2792 1805,2805 C1854,2813 1913,2831 1949,2849 C2069,2908 2162,3032 2183,3164 C2196,3242 2196,4203 2183,4292 C2136,4619 1874,4859 1549,4874 C1499,4876 1449,4876 1438,4873 C1427,4871 1393,4864 1363,4858 C1193,4825 1002,4675 918,4509 C728,4133 933,3673 1343,3560 C1451,3530 1457,3531 1477,3584 C1516,3684 1620,3763 1732,3776 C1773,3781 1784,3778 1802,3760 C1813,3749 1823,3730 1823,3719 C1823,3691 1788,3659 1758,3659 C1724,3659 1664,3633 1635,3606 C1598,3572 1580,3529 1580,3474 C1580,3394 1620,3336 1695,3304 C1716,3296 1746,3289 1762,3289 C1782,3289 1797,3281 1807,3267 C1829,3236 1827,3213 1802,3188 C1784,3170 1773,3167 1730,3173 C1619,3186 1511,3270 1478,3368 L1463,3415 L1385,3428 C1244,3452 1096,3522 994,3614 C947,3657 925,3656 831,3607 C710,3543 619,3408 604,3269 C594,3174 561,3146 505,3185 C488,3197 483,3210 483,3243 C483,3434 606,3629 780,3715 C823,3737 859,3755 861,3755 C862,3756 846,3790 824,3830 C786,3901 767,3953 743,4047 C737,4070 727,4089 720,4089 C713,4089 674,4073 633,4053 C432,3957 263,3775 180,3568 C131,3446 119,3376 119,3224 C120,3061 139,2975 203,2841 C251,2741 286,2688 359,2610 C486,2472 661,2375 856,2334 C946,2314 983,2315 983,2334 C983,2364 1032,2446 1069,2479 C1143,2544 1260,2576 1308,2545 C1359,2512 1329,2439 1263,2439 C1221,2438 1157,2403 1127,2364 C1088,2313 1082,2230 1112,2171 C1138,2120 1193,2082 1253,2073 C1306,2065 1333,2045 1333,2012 C1333,1982 1300,1949 1270,1949 C1228,1949 1140,1980 1095,2011 C1048,2043 1008,2097 988,2156 L975,2193 L888,2206 C840,2213 757,2234 702,2252 L603,2286 L546,2228 C476,2159 431,2086 395,1987 C371,1920 368,1901 368,1769 C368,1637 371,1618 395,1551 C434,1443 479,1373 565,1288 C703,1149 859,1092 1071,1101 C1174,1106 1187,1105 1204,1088 C1231,1061 1228,1043 1183,974 C1124,884 1101,810 1095,700 C1087,527 1131,411 1253,288 C1330,210 1375,181 1472,148 C1527.4688,128.85938 1584.1194,119.86666 1640.1055,120.0293 Z M3466.6953,121.19727 C3578.2,120.91813 3688.8359,183.4375 3745,297 C3778,363 3778,495 3745,556 C3688,665 3602,721 3483,726 C3436,728 3394,724 3372,716 C3311,693 3264,659 3228,612 C3129,482 3146,310 3271,197 C3328.0391,145.70312 3397.5342,121.3704 3466.6953,121.19727 Z M1645.5195,369.70898 C1636.1081,369.74088 1624.0312,370.59375 1608,372 C1467,383 1357,491 1337,637 C1332,680 1334,690 1352,708 C1378,734 1415,735 1435,712 C1443,702 1453,677 1456,657 C1470,566 1545,489 1620,489 C1643,489 1662,481 1678,464 C1707,436 1709,422 1687,390 C1676.2188,374.90625 1669.571,369.62756 1645.5195,369.70898 Z M1014.4004,1342.0586 C999.9317,1341.9111 982.9688,1343.625 963,1347 C792,1378 662,1497 618,1664 C597,1744 599,1785 623,1809 C648,1834 677,1835 701,1811 C712,1800 722,1770 726,1739 C744,1591 856,1481 1007,1463 C1052,1458 1068,1451 1080,1432 C1093,1413 1094,1403 1085,1383 C1072.0625,1354.9688 1051.376,1342.4355 1014.4004,1342.0586 Z M4312.8047,1342.8145 C4362.6784,1342.5649 4414.625,1352.3438 4455,1372 C4515,1402 4570,1456 4599,1518 C4625,1571 4629,1685 4607,1751 C4582,1826 4496,1911 4423,1933 C4357,1953 4272,1952 4215,1932 C4154,1911 4070,1830 4042,1767 C3977,1617 4042,1447 4195,1367 C4226.4062,1351.0625 4268.7985,1343.0346 4312.8047,1342.8145 Z M4567.5117,2804.2051 C4612.7758,2804.4148 4657.8438,2813.9219 4696,2833 C4831,2898 4900,3051 4859,3192 C4815,3343 4658,3439 4504,3408 C4411,3390 4309,3301 4279,3212 C4259,3152 4259,3065 4279,3005 C4301,2941 4379,2858 4445,2828 C4482.2969,2812.0156 4524.9909,2804.0081 4567.5117,2804.2051 Z M1885,4149 C1847,4149 1823,4176 1823,4220 C1823,4274 1789,4359 1748,4407 C1703,4459 1605,4509 1548,4509 C1476,4509 1435,4568 1474,4615 C1495,4640 1613,4629 1688,4595 C1805,4542 1886,4450 1923,4330 C1958,4217 1944,4149 1885,4149 Z M3593.6875,4268.8164 C3663.9676,4268.8984 3734.5781,4293.3203 3792,4345 C3858,4405 3887,4466 3891,4561 C3895,4627 3891,4646 3870,4692 C3839,4759 3776,4824 3715,4851 C3658,4877 3561,4883 3508,4866 C3415,4835 3349,4777 3310,4690 C3279,4624 3281,4512 3313,4446 C3367.9297,4331.8203 3480.3788,4268.6843 3593.6875,4268.8164 Z" id="Shape"></path>
        </g>
        <text id="DiagnoSys" font-family="MMTextBook" font-size="3072" font-weight="normal" fill="#9B9B9B">
            <tspan x="5700" y="3278">DiagnoSys</tspan>
        </text>
    </g>
</svg>